<svg width="1292" height="411" viewBox="0 0 1292 411" fill="none" xmlns="http://www.w3.org/2000/svg">
<path d="M1121.69 339.579V129.631H1157.06V339.579H1121.69Z" fill="white"/>
<path d="M1033.68 341.56C1016.89 341.56 1002.18 338.259 989.537 331.657C977.087 324.866 967.373 315.623 960.393 303.928C953.602 292.232 950.207 278.934 950.207 264.032C950.207 248.941 953.508 235.643 960.11 224.136C966.901 212.441 976.144 203.292 987.839 196.69C999.723 190.088 1013.21 186.787 1028.3 186.787C1043.01 186.787 1056.12 189.994 1067.63 196.407C1079.14 202.821 1088.19 211.875 1094.79 223.57C1101.4 235.265 1104.7 249.036 1104.7 264.881C1104.7 266.39 1104.6 268.087 1104.41 269.974C1104.41 271.86 1104.32 273.652 1104.13 275.35H978.219V251.865H1085.46L1071.59 259.222C1071.78 250.545 1069.99 242.905 1066.22 236.303C1062.44 229.701 1057.26 224.513 1050.65 220.741C1044.24 216.968 1036.79 215.082 1028.3 215.082C1019.62 215.082 1011.98 216.968 1005.38 220.741C998.968 224.513 993.875 229.795 990.103 236.586C986.519 243.188 984.727 251.016 984.727 260.071V265.73C984.727 274.784 986.802 282.801 990.952 289.78C995.102 296.76 1000.95 302.136 1008.49 305.908C1016.04 309.681 1024.72 311.567 1034.53 311.567C1043.01 311.567 1050.65 310.247 1057.44 307.606C1064.24 304.965 1070.27 300.815 1075.55 295.156L1094.51 316.943C1087.72 324.866 1079.14 330.996 1068.76 335.335C1058.58 339.485 1046.88 341.56 1033.68 341.56Z" fill="white"/>
<path d="M860.377 339.579L795.582 188.485H832.365L888.106 321.753H869.997L927.719 188.485H961.673L896.878 339.579H860.377Z" fill="white"/>
<path d="M734.945 341.56C718.157 341.56 703.444 338.259 690.805 331.657C678.356 324.866 668.641 315.623 661.662 303.928C654.871 292.232 651.476 278.934 651.476 264.032C651.476 248.941 654.777 235.643 661.379 224.136C668.17 212.441 677.413 203.292 689.108 196.69C700.992 190.088 714.479 186.787 729.569 186.787C744.283 186.787 757.393 189.994 768.899 196.407C780.406 202.821 789.46 211.875 796.062 223.57C802.664 235.265 805.965 249.036 805.965 264.881C805.965 266.39 805.871 268.087 805.682 269.974C805.682 271.86 805.588 273.652 805.4 275.35H679.487V251.865H786.725L772.86 259.222C773.049 250.545 771.257 242.905 767.484 236.303C763.712 229.701 758.524 224.513 751.922 220.741C745.509 216.968 738.058 215.082 729.569 215.082C720.892 215.082 713.253 216.968 706.651 220.741C700.237 224.513 695.144 229.795 691.371 236.586C687.787 243.188 685.995 251.016 685.995 260.071V265.73C685.995 274.784 688.07 282.801 692.22 289.78C696.37 296.76 702.218 302.136 709.763 305.908C717.308 309.681 725.985 311.567 735.794 311.567C744.283 311.567 751.922 310.247 758.713 307.606C765.504 304.965 771.54 300.815 776.822 295.156L795.779 316.943C788.989 324.866 780.406 330.996 770.031 335.335C759.845 339.485 748.15 341.56 734.945 341.56Z" fill="white"/>
<path d="M564.849 339.579V188.485H598.519V230.078L594.558 217.911C599.085 207.725 606.159 199.991 615.779 194.71C625.588 189.428 637.755 186.787 652.28 186.787V220.458C650.771 220.081 649.356 219.892 648.035 219.892C646.715 219.703 645.395 219.609 644.074 219.609C630.681 219.609 620.024 223.57 612.101 231.493C604.178 239.227 600.217 250.828 600.217 266.295V339.579H564.849Z" fill="white"/>
<path d="M453.18 341.56C440.353 341.56 429.035 339.202 419.226 334.486C409.417 329.582 401.777 322.225 396.307 312.416C390.837 302.419 388.102 289.875 388.102 274.784V188.485H423.47V269.974C423.47 283.555 426.488 293.741 432.524 300.532C438.749 307.134 447.521 310.435 458.839 310.435C467.138 310.435 474.306 308.738 480.343 305.342C486.568 301.947 491.378 296.854 494.773 290.063C498.357 283.272 500.149 274.878 500.149 264.881V188.485H535.518V339.579H501.847V298.835L507.789 311.284C502.696 321.093 495.245 328.638 485.436 333.92C475.627 339.013 464.875 341.56 453.18 341.56Z" fill="white"/>
<path d="M343.161 341.56C326.562 341.56 313.735 337.316 304.68 328.827C295.626 320.15 291.099 307.417 291.099 290.629V155.097H326.467V289.78C326.467 296.948 328.259 302.513 331.843 306.474C335.616 310.435 340.803 312.416 347.405 312.416C355.328 312.416 361.93 310.341 367.212 306.191L377.115 331.374C372.965 334.769 367.872 337.316 361.836 339.013C355.8 340.711 349.575 341.56 343.161 341.56ZM266.199 217.911V189.616H366.929V217.911H266.199Z" fill="white"/>
<path d="M174.619 341.56C161.792 341.56 150.474 339.202 140.665 334.486C130.856 329.582 123.217 322.225 117.747 312.416C112.276 302.419 109.541 289.875 109.541 274.784V188.485H144.91V269.974C144.91 283.555 147.928 293.741 153.964 300.532C160.189 307.134 168.96 310.435 180.278 310.435C188.578 310.435 195.746 308.738 201.782 305.342C208.007 301.947 212.817 296.854 216.213 290.063C219.797 283.272 221.589 274.878 221.589 264.881V188.485H256.957V339.579H223.286V298.835L229.228 311.284C224.135 321.093 216.684 328.638 206.875 333.92C197.066 339.013 186.314 341.56 174.619 341.56Z" fill="white"/>
<path d="M28.0118 339.579V179.996C28.0118 164.151 32.6333 151.513 41.8762 142.081C51.3078 132.461 64.7007 127.651 82.0549 127.651C88.2798 127.651 94.1274 128.311 99.5977 129.631C105.257 130.952 109.972 133.027 113.745 135.856L104.125 162.453C101.484 160.378 98.4659 158.869 95.0705 157.926C91.6751 156.794 88.1854 156.229 84.6014 156.229C77.2448 156.229 71.6801 158.304 67.9075 162.453C64.1348 166.415 62.2485 172.451 62.2485 180.562V197.539L63.3803 213.384V339.579H28.0118ZM3.1123 217.911V189.616H103.842V217.911H3.1123Z" fill="white"/>
<path d="M1275.59 95.4955C1293.79 109.799 1296.95 136.15 1282.65 154.354C1268.35 172.558 1241.99 175.72 1223.79 161.417C1207.7 148.774 1203.36 126.717 1212.45 109.195L1167.18 73.6217C1152.3 86.5984 1129.85 87.6042 1113.76 74.9609C1095.55 60.6578 1092.39 34.3061 1106.69 16.1022C1121 -2.10174 1147.35 -5.26394 1165.55 9.03914C1181.64 21.6824 1185.98 43.739 1176.89 61.2617L1222.16 96.8347C1237.04 83.858 1259.49 82.8523 1275.59 95.4955Z" fill="#0088FF"/>
</svg>
